<svg xmlns="http://www.w3.org/2000/svg" width="20.021" height="24" viewBox="0 0 20.021 24"><defs><style>.a{fill:#fff;}</style></defs><g transform="translate(-50.682 0)"><g transform="translate(50.682 -0.001)"><path class="a" d="M54.686,17.993a.946.946,0,0,0,1,1h1v3.5a1.5,1.5,0,1,0,3,0v-3.5h2v3.5a1.5,1.5,0,0,0,3,0v-3.5h1a.946.946,0,0,0,1-1V7.983H54.686Zm-2.5-10.01a1.54,1.54,0,0,0-1.5,1.5v7.007a1.5,1.5,0,1,0,3,0V9.484A1.54,1.54,0,0,0,52.184,7.983Zm17.018,0a1.54,1.54,0,0,0-1.5,1.5v7.007a1.5,1.5,0,1,0,3,0V9.484A1.54,1.54,0,0,0,69.2,7.983ZM64.2,2.177l1.3-1.3a.484.484,0,0,0,0-.7.484.484,0,0,0-.7,0l-1.5,1.5a4.411,4.411,0,0,0-2.6-.7,5.961,5.961,0,0,0-2.7.6l-1.4-1.5a1.105,1.105,0,0,0-.8,0,1.105,1.105,0,0,0,0,.8l1.3,1.3a6.115,6.115,0,0,0-2.4,4.8H66.7A5.786,5.786,0,0,0,64.2,2.177ZM58.69,4.98h-1v-1h1Zm5.005,0h-1v-1h1Z" transform="translate(-50.682 0.001)"/></g></g></svg>