<svg xmlns="http://www.w3.org/2000/svg" width="32" height="32" viewBox="0 0 32 32"><path d="M5,8.761A.739.739,0,0,1,5.711,8H25.622a.763.763,0,0,1,0,1.522H5.711A.739.739,0,0,1,5,8.761Zm.711,8.371H25.622a.763.763,0,0,0,0-1.522H5.711a.763.763,0,0,0,0,1.522Zm0,7.61H25.622a.763.763,0,0,0,0-1.522H5.711a.763.763,0,0,0,0,1.522Zm12.8,6.088H5.711a.763.763,0,0,0,0,1.522h12.8a.763.763,0,0,0,0-1.522Zm0,7.61H5.711a.763.763,0,0,0,0,1.522h12.8a.763.763,0,0,0,0-1.522Zm18.276-7.382a.657.657,0,0,0-1,0l-5.9,6.316V8.761a.713.713,0,1,0-1.422,0V37.375l-5.9-6.316a.657.657,0,0,0-1,0,.772.772,0,0,0,0,1.065l7.111,7.61.107.114.036.038c.036,0,.036.038.071.038s.036,0,.071.038c.036,0,.036,0,.071.038h.284c.036,0,.036,0,.071-.038.036,0,.036,0,.071-.038.036,0,.036-.038.071-.038a.036.036,0,0,0,.036-.038l.107-.114,7.111-7.61A.772.772,0,0,0,36.787,31.058Z" transform="translate(-5 -8)"/></svg>