<svg xmlns="http://www.w3.org/2000/svg" width="48" height="48" viewBox="0 0 48 48"><defs><style>.a{opacity:0.8;}.b{fill:#fff;}</style></defs><g class="a"><path class="b" d="M21.272,28.921c-.156-.1-.315-.216-.482-.329a5.471,5.471,0,0,0-1.531-.233h-.064c-2.43,0-4.561,1.47-4.561,3.149,0,1.827,1.826,3.255,4.156,3.255,3.073,0,4.631-1.061,4.631-3.15A2.616,2.616,0,0,0,23.347,31C23.139,30.195,22.4,29.689,21.272,28.921Z" transform="translate(-0.487 -0.944)"/><path class="b" d="M19.6,22.092h0a1.861,1.861,0,0,0,1.451-.664,3.812,3.812,0,0,0,.7-2.975c-.276-2.113-1.787-3.873-3.363-3.918l-.063,0A1.863,1.863,0,0,0,16.9,15.2a3.7,3.7,0,0,0-.682,2.912c.276,2.111,1.819,3.936,3.363,3.984Z" transform="translate(-0.538 -0.484)"/><path class="b" d="M24,0A24,24,0,1,0,48,24,24.027,24.027,0,0,0,24,0ZM21.233,35.687a10.513,10.513,0,0,1-2.918.394,13.372,13.372,0,0,1-3.276-.392A6.355,6.355,0,0,1,10.9,33.011a3.409,3.409,0,0,1-.446-1.679,4.264,4.264,0,0,1,.428-1.818c1.09-2.322,3.962-3.884,7.143-3.884h.091a2.834,2.834,0,0,1-.383-1.423,3.026,3.026,0,0,1,.1-.754,5.731,5.731,0,0,1-5.834-5.741c0-2.275,1.818-4.491,4.419-5.387a7.21,7.21,0,0,1,2.352-.406H25.9a.561.561,0,0,1,.33,1.014l-1.6,1.155a.571.571,0,0,1-.33.1h-.571a5.554,5.554,0,0,1,1.17,3.562,5.315,5.315,0,0,1-2.23,4.168c-1.112.866-1.155,1.1-1.155,1.6a4.74,4.74,0,0,0,1.642,1.762,5.519,5.519,0,0,1,2.731,5.094C25.89,32.785,24.062,34.865,21.233,35.687ZM37.35,23.446a.562.562,0,0,1-.561.561H32.733v4.057a.561.561,0,0,1-.559.561H31.019a.562.562,0,0,1-.563-.561V24.007H26.4a.56.56,0,0,1-.561-.561V22.293a.563.563,0,0,1,.561-.563h4.053V17.677a.561.561,0,0,1,.563-.561h1.155a.561.561,0,0,1,.559.561V21.73h4.054a.562.562,0,0,1,.561.561v1.155Z"/></g></svg>