<svg xmlns="http://www.w3.org/2000/svg" width="24" height="24" viewBox="0 0 24 24"><defs><style>.a{opacity:0.8;}.b{fill:#fff;}</style></defs><g class="a" transform="translate(0 0)"><path class="b" d="M17.952,28.64c-.078-.052-.158-.108-.241-.164a2.736,2.736,0,0,0-.766-.116h-.032c-1.215,0-2.281.735-2.281,1.574a1.873,1.873,0,0,0,2.078,1.627c1.537,0,2.315-.531,2.315-1.575a1.308,1.308,0,0,0-.036-.3C18.886,29.277,18.514,29.024,17.952,28.64Z" transform="translate(-7.56 -14.651)"/><path class="b" d="M17.886,18.312h0a.931.931,0,0,0,.726-.332,1.906,1.906,0,0,0,.351-1.487,2.106,2.106,0,0,0-1.682-1.959h-.031a.931.931,0,0,0-.717.332,1.847,1.847,0,0,0-.341,1.456c.138,1.056.91,1.968,1.682,1.992Z" transform="translate(-8.354 -7.508)"/><path class="b" d="M12,0A12,12,0,1,0,24,12,12.014,12.014,0,0,0,12,0ZM10.617,17.843a5.256,5.256,0,0,1-1.459.2,6.686,6.686,0,0,1-1.638-.2,3.177,3.177,0,0,1-2.072-1.339,1.7,1.7,0,0,1-.223-.84,2.132,2.132,0,0,1,.214-.909A3.9,3.9,0,0,1,9.01,12.815h.045a1.417,1.417,0,0,1-.191-.712,1.513,1.513,0,0,1,.049-.377A2.866,2.866,0,0,1,6,8.855,3.065,3.065,0,0,1,8.206,6.162a3.605,3.605,0,0,1,1.176-.2H12.95a.28.28,0,0,1,.165.507l-.8.578a.285.285,0,0,1-.165.052h-.286a2.777,2.777,0,0,1,.585,1.781,2.657,2.657,0,0,1-1.115,2.084c-.556.433-.578.552-.578.8a2.37,2.37,0,0,0,.821.881,2.759,2.759,0,0,1,1.366,2.547A2.908,2.908,0,0,1,10.617,17.843Zm8.058-6.12a.281.281,0,0,1-.28.28H16.367v2.029a.281.281,0,0,1-.279.28H15.51a.281.281,0,0,1-.281-.28V12H13.2a.28.28,0,0,1-.28-.28v-.577a.281.281,0,0,1,.28-.281h2.026V8.838a.28.28,0,0,1,.281-.28h.578a.28.28,0,0,1,.279.28v2.027h2.027a.281.281,0,0,1,.28.28v.578Z"/></g></svg>