<svg xmlns="http://www.w3.org/2000/svg" width="48" height="48" viewBox="0 0 48 48"><defs><style>.a{opacity:0.85;}.b{fill:#fff;}</style></defs><g class="a" transform="translate(-0.4 -0.6)"><path class="b" d="M47.287.6H29.432a6.176,6.176,0,0,0-5.177,2.772A6.3,6.3,0,0,0,19.077.6H1.513A1.1,1.1,0,0,0,.4,1.719V44.272A1.1,1.1,0,0,0,1.513,45.39H19.077a5.1,5.1,0,0,1,3.968,2.14c0,.049.581,1.07,1.21,1.07a1.129,1.129,0,0,0,.774-.486h0l.435-.584a5.1,5.1,0,0,1,3.968-2.14H47.287A1.1,1.1,0,0,0,48.4,44.272V1.719A1.128,1.128,0,0,0,47.287.6ZM2.626,43.153V2.837H19.077a4.1,4.1,0,0,1,4.065,4.085s0,36.134.048,36.231Zm43.548,0H25.319c.048-.1.048-36.231.048-36.231a4.1,4.1,0,0,1,4.065-4.085H46.174Z" transform="translate(0 0)"/><path class="b" d="M22.4,16.8H12.72a.907.907,0,0,0-.92.925v7.115a.907.907,0,0,0,.92.925H22.4a.907.907,0,0,0,.92-.925V17.725A.933.933,0,0,0,22.4,16.8Zm-.92,7.115H13.64V18.649h7.839Z" transform="translate(-6.841 -7.923)"/><path class="b" d="M22.339,52.2H12.62a.925.925,0,0,0,0,1.849h9.719a.925.925,0,0,0,0-1.849Z" transform="translate(-6.781 -26.293)"/><path class="b" d="M70.939,70.9H61.22a.925.925,0,0,0,0,1.849h9.719a.925.925,0,0,0,0-1.849Z" transform="translate(-27.618 -35.822)"/><path class="b" d="M70.939,53.2H61.22a.925.925,0,0,0,0,1.849h9.719a.925.925,0,0,0,0-1.849Z" transform="translate(-27.618 -26.803)"/><path class="b" d="M70.939,35.6H61.22a.925.925,0,0,0,0,1.849h9.719a.925.925,0,0,0,0-1.849Z" transform="translate(-27.618 -17.834)"/><path class="b" d="M61.22,19.749h9.719a.925.925,0,0,0,0-1.849H61.22a.925.925,0,0,0,0,1.849Z" transform="translate(-27.618 -8.815)"/><path class="b" d="M22.339,69.8H12.62a.925.925,0,0,0,0,1.849h9.719a.907.907,0,0,0,.92-.925A.933.933,0,0,0,22.339,69.8Z" transform="translate(-6.781 -35.261)"/></g></svg>