<svg xmlns="http://www.w3.org/2000/svg" width="19.903" height="24" viewBox="0 0 19.903 24"><defs><style>.a{fill:#fff;}</style></defs><g transform="translate(0)"><g transform="translate(0 0)"><path class="a" d="M25.951,961.362a6.438,6.438,0,0,0-6.439,6.439v3.512H17.756A1.765,1.765,0,0,0,16,973.069v10.537a1.765,1.765,0,0,0,1.756,1.756h16.39a1.765,1.765,0,0,0,1.756-1.756V973.069a1.765,1.765,0,0,0-1.756-1.756H32.39V967.8A6.438,6.438,0,0,0,25.951,961.362Zm0,1.171A5.244,5.244,0,0,1,31.22,967.8v3.512H20.683V967.8A5.244,5.244,0,0,1,25.951,962.533Zm-8.2,9.951h16.39a.572.572,0,0,1,.585.585v10.537a.572.572,0,0,1-.585.585H17.756a.572.572,0,0,1-.585-.585V973.069A.572.572,0,0,1,17.756,972.484Z" transform="translate(-16 -961.362)"/></g></g></svg>