<svg xmlns="http://www.w3.org/2000/svg" width="24" height="24" viewBox="0 0 24 24"><defs><style>.a{fill:rgba(0,0,0,0.02);}.b{fill:#fff;}</style></defs><g transform="translate(-1000.33 -267.33)"><rect class="a" width="24" height="24" transform="translate(1000.33 267.33)"/><g transform="translate(1000.558 267.654)"><g transform="translate(0 0)"><path class="b" d="M41.687,43.723a1.953,1.953,0,0,0,1.972-1.972,11.8,11.8,0,0,0-6.7-10.648,6.7,6.7,0,1,0-11.829-4.3A6.545,6.545,0,0,0,26.7,31.1,11.844,11.844,0,0,0,20,41.751a1.953,1.953,0,0,0,1.972,1.972ZM31.829,21.638A5.127,5.127,0,1,1,26.7,26.765,5.116,5.116,0,0,1,31.829,21.638ZM21.577,41.751a10.316,10.316,0,0,1,6.388-9.5,6.533,6.533,0,0,0,3.864,1.223,6.914,6.914,0,0,0,3.864-1.223,10.316,10.316,0,0,1,6.388,9.5.373.373,0,0,1-.394.394H21.972A.4.4,0,0,1,21.577,41.751Z" transform="translate(-20 -20.1)"/></g></g></g></svg>