<svg xmlns="http://www.w3.org/2000/svg" width="48" height="48" viewBox="0 0 48 48"><defs><style>.a{opacity:0.85;}.b{fill:#fff;fill-rule:evenodd;}</style></defs><g class="a" transform="translate(6 3)"><g transform="translate(-6 -3)"><path class="b" d="M26.089,19.272H20.854V22.38h1.055V33.53H20.854v3.108h6.293V33.53H26.089ZM48,24A24,24,0,1,0,24,48,24,24,0,0,0,48,24ZM24,2.717A21.283,21.283,0,1,1,2.717,24,21.281,21.281,0,0,1,24,2.717ZM21.575,13.788A2.424,2.424,0,1,0,24,11.364,2.424,2.424,0,0,0,21.575,13.788Z"/></g></g></svg>