<svg xmlns="http://www.w3.org/2000/svg" width="60.035" height="88" viewBox="0 0 60.035 88"><defs><style>.a{fill:#fff;}</style></defs><g transform="translate(0)"><path class="a" d="M49.2,63.626h0L21.24,63.617a1.344,1.344,0,0,1-1.335-1.184c-.325-2.744-1.284-6.619-4.025-9.468a.047.047,0,0,0-.011-.013,30.016,30.016,0,1,1,38.58.11c-2.632,2.755-3.59,6.633-3.915,9.38A1.335,1.335,0,0,1,49.2,63.626Zm-26.8-2.693,25.631.008A18.5,18.5,0,0,1,52.623,51.1a27.34,27.34,0,1,0-34.9-.1,1.329,1.329,0,0,1,.215.228A18.568,18.568,0,0,1,22.405,60.932Z" transform="translate(-5.206)"/><path class="a" d="M39.982,28.4H12.02a1.343,1.343,0,1,1,0-2.685H39.982a1.343,1.343,0,1,1,0,2.685Z" transform="translate(4.014 43.343)"/><path class="a" d="M39.982,31.429H12.02a1.343,1.343,0,0,1,0-2.685H39.982a1.343,1.343,0,0,1,0,2.685Z" transform="translate(4.014 48.442)"/><path class="a" d="M26.755,34.456H15.047a1.343,1.343,0,1,1,0-2.685H26.755a1.343,1.343,0,0,1,0,2.685Z" transform="translate(9.116 53.544)"/></g></svg>