<svg xmlns="http://www.w3.org/2000/svg" width="48" height="48.002" viewBox="0 0 48 48.002"><defs><style>.a{fill:#fff;opacity:0.8;}</style></defs><path class="a" d="M-20136,1104a23.837,23.837,0,0,1-16.969-7.029A23.831,23.831,0,0,1-20160,1080a23.841,23.841,0,0,1,7.031-16.974A23.835,23.835,0,0,1-20136,1056a23.835,23.835,0,0,1,16.969,7.03A23.858,23.858,0,0,1-20112,1080a23.848,23.848,0,0,1-7.031,16.969A23.837,23.837,0,0,1-20136,1104Zm4.348-24.423c1.867,0,2.016,1.536,2.016,3.545v7.17a.367.367,0,0,0,.371.37h4.582a.37.37,0,0,0,.371-.37V1082.2c0-3.656-.7-7.394-5.871-7.394a5.346,5.346,0,0,0-4.027,1.688v-.953a.372.372,0,0,0-.371-.37h-4.4a.367.367,0,0,0-.371.37v14.746a.367.367,0,0,0,.371.37h4.578a.367.367,0,0,0,.371-.37v-7.3C-20134.031,1080.535-20133.363,1079.576-20131.652,1079.576Zm-15.984-4.4a.367.367,0,0,0-.371.37v14.746a.367.367,0,0,0,.371.37h4.59a.365.365,0,0,0,.371-.37v-14.746a.365.365,0,0,0-.371-.37Zm2.3-8.517a3.037,3.037,0,0,0-3.035,3.029,3.034,3.034,0,0,0,3.035,3.023,3.026,3.026,0,0,0,3.023-3.023A3.029,3.029,0,0,0-20145.336,1066.658Z" transform="translate(20160 -1055.997)"/></svg>