<svg xmlns="http://www.w3.org/2000/svg" width="24" height="24" viewBox="0 0 24 24"><defs><style>.a{fill:#fff;opacity:0.8;}</style></defs><path class="a" d="M12,24A12,12,0,0,1,3.516,3.515,12,12,0,1,1,20.484,20.485,11.919,11.919,0,0,1,12,24Zm2.174-12.211c.934,0,1.008.768,1.008,1.773v3.585a.184.184,0,0,0,.186.185h2.291a.185.185,0,0,0,.186-.185V13.1c0-1.828-.348-3.7-2.936-3.7a2.673,2.673,0,0,0-2.014.844V9.774a.186.186,0,0,0-.186-.185h-2.2a.184.184,0,0,0-.186.185v7.373a.184.184,0,0,0,.186.185H12.8a.184.184,0,0,0,.186-.185V13.5C12.984,12.268,13.318,11.789,14.174,11.789Zm-7.992-2.2A.184.184,0,0,0,6,9.774v7.373a.184.184,0,0,0,.186.185H8.477a.183.183,0,0,0,.186-.185V9.774a.183.183,0,0,0-.186-.185ZM7.332,5.33A1.513,1.513,0,1,0,8.844,6.845,1.518,1.518,0,0,0,7.332,5.33Z" transform="translate(0)"/></svg>