<svg xmlns="http://www.w3.org/2000/svg" width="48" height="48" viewBox="0 0 48 48"><defs><style>.a{fill:#fff;}.b{fill:none;}</style></defs><g transform="translate(-1413 164)"><path class="a" d="M20,10.85A3.15,3.15,0,1,1,16.85,14,3.15,3.15,0,0,1,20,10.85m0,13.5c4.462,0,9.15,2.182,9.15,3.15v1.65H10.85V27.5c0-.968,4.688-3.15,9.15-3.15M20,8a6,6,0,1,0,6,6A6,6,0,0,0,20,8Zm0,13.5c-4,0-12,2-12,6V32H32V27.5C32,23.5,24,21.5,20,21.5Z" transform="translate(1417 -160)"/><path class="b" d="M0,0H48V48H0Z" transform="translate(1413 -164)"/></g></svg>