<svg xmlns="http://www.w3.org/2000/svg" width="32" height="37.989" viewBox="0 0 32 37.989"><g transform="translate(-23.468 -324)"><path d="M48.1,30.972a3.891,3.891,0,0,1,1.138-2.2.872.872,0,0,0,.2-.812l-.848-2.1a.881.881,0,0,0-.712-.444,3.881,3.881,0,0,1-2.345-.787,3.879,3.879,0,0,1-.753-2.359.878.878,0,0,0-.431-.718l-2.083-.88a.7.7,0,0,0-.223-.033.878.878,0,0,0-.593.222,5.37,5.37,0,0,1-.864.654V17.037a2.942,2.942,0,0,1,1.343-2.263s2.423-1.347,2.6-1.522a1.428,1.428,0,0,0,.248-.316,1.007,1.007,0,0,0,.135-.5.921.921,0,0,0-.071-.357.986.986,0,0,0-.355-.426,1.49,1.49,0,0,0-.576-.225,3.382,3.382,0,0,0-.624-.052H20.173a2.71,2.71,0,0,0-2.705,2.705V47.532a2.134,2.134,0,0,0,.341,1.24,1.4,1.4,0,0,0,.5.441,1.381,1.381,0,0,0,.648.156,2.1,2.1,0,0,0,1.259-.489l7.707-5.956a1.959,1.959,0,0,1,2.211,0l7.707,5.956a2.092,2.092,0,0,0,1.26.49,1.39,1.39,0,0,0,.648-.156,1.48,1.48,0,0,0,.656-.724,2.346,2.346,0,0,0,.181-.958V40.4a5.158,5.158,0,0,1,.7.575.882.882,0,0,0,.6.232.681.681,0,0,0,.211-.031l2.1-.849a.882.882,0,0,0,.444-.712,3.9,3.9,0,0,1,.788-2.346,3.837,3.837,0,0,1,2.35-.748H47.8a.881.881,0,0,0,.713-.431l.88-2.083a.878.878,0,0,0-.187-.816A3.9,3.9,0,0,1,48.1,30.972Zm-8.987,16.56a.958.958,0,0,1-.053.355.93.93,0,0,1-.315-.174l-7.707-5.955a3.425,3.425,0,0,0-4.015,0l-7.707,5.955a.934.934,0,0,1-.314.174.937.937,0,0,1-.054-.355V14.086a1.235,1.235,0,0,1,1.23-1.23H42.366l-1.143.624a4.392,4.392,0,0,0-2.112,3.558v4.915a4.06,4.06,0,0,1-2.074-1.12.879.879,0,0,0-.6-.232.694.694,0,0,0-.21.03l-2.1.848a.88.88,0,0,0-.443.711,3.879,3.879,0,0,1-.786,2.347,3.85,3.85,0,0,1-2.352.75h-.012a.884.884,0,0,0-.714.432L28.939,27.8a.875.875,0,0,0,.188.815,3.888,3.888,0,0,1,1.1,2.214,3.908,3.908,0,0,1-1.138,2.2.881.881,0,0,0-.2.813l.848,2.1a.882.882,0,0,0,.712.443,3.87,3.87,0,0,1,2.344.788,3.874,3.874,0,0,1,.749,2.357.88.88,0,0,0,.432.718l2.083.88a.7.7,0,0,0,.223.033.882.882,0,0,0,.594-.222,3.912,3.912,0,0,1,2.205-1.1h.01l.017,0v7.694ZM47.84,33.881l-.5,1.181A4.78,4.78,0,0,0,44.4,36.219a4.819,4.819,0,0,0-1.2,2.923L42,39.624a4.833,4.833,0,0,0-2.919-1.264,4.832,4.832,0,0,0-2.9,1.217L35,39.077a4.8,4.8,0,0,0-1.155-2.94,4.8,4.8,0,0,0-2.926-1.207l-.482-1.19a4.84,4.84,0,0,0,1.264-2.9,4.81,4.81,0,0,0-1.218-2.914l.5-1.182a4.79,4.79,0,0,0,2.943-1.157,4.8,4.8,0,0,0,1.2-2.926l1.189-.481a4.8,4.8,0,0,0,2.9,1.261h.027a4.816,4.816,0,0,0,2.893-1.215l1.18.5a4.8,4.8,0,0,0,1.158,2.942,4.8,4.8,0,0,0,2.925,1.2l.482,1.189a4.807,4.807,0,0,0-1.264,2.9A4.826,4.826,0,0,0,47.84,33.881Z" transform="translate(6 312.62)"/><path d="M57.3,42.589h-.028a4.171,4.171,0,0,0-.036,8.342h.031a4.171,4.171,0,0,0,.033-8.342Zm-.052,6.867a2.7,2.7,0,0,1,.024-5.391h.014a2.7,2.7,0,1,1-.038,5.391Z" transform="translate(-12.107 296.761)"/></g></svg>