<svg xmlns="http://www.w3.org/2000/svg" width="18.999" height="24" viewBox="0 0 18.999 24"><defs><style>.a{fill:#fff;fill-rule:evenodd;}</style></defs><g transform="translate(-5.04 -8)"><g transform="translate(5.04 8)"><path class="a" d="M46.866,14.053c1.74-.076,2.875.908,4.01.908s2.194-.984,4.01-.908A5.9,5.9,0,0,1,59.425,16.1,5.326,5.326,0,0,0,56.4,20.862a5.167,5.167,0,0,0,3.48,4.842,11.283,11.283,0,0,1-4.086,5.9c-2.421,1.286-3.859-.984-4.918-.984-1.135,0-2.5,2.27-4.918.984-2.875-1.816-4.615-5.977-4.993-9.457C40.284,16.171,43.84,14.053,46.866,14.053Zm3.707-.378C50.5,10.118,52.389,8.454,55.642,8,55.037,11.859,53.524,13.069,50.573,13.674Z" transform="translate(-40.88 -8)"/></g></g></svg>