<svg xmlns="http://www.w3.org/2000/svg" width="68.81" height="37.807" viewBox="0 0 68.81 37.807"><defs><style>.a{fill:#fff;}</style></defs><path class="a" d="M69.223,26.1A2.164,2.164,0,0,0,66.929,24H11.881a2.164,2.164,0,0,0-2.294,2.1V56.906H5v.7a4.42,4.42,0,0,0,4.587,4.2H69.223a4.79,4.79,0,0,0,3.288-1.26,3.954,3.954,0,0,0,1.3-2.941v-.7H69.223Zm-58.106,0a.694.694,0,0,1,.765-.7H66.929a.694.694,0,0,1,.765.7V56.906H11.116ZM72.2,58.306a2.746,2.746,0,0,1-.765,1.26,3.211,3.211,0,0,1-2.217.84H9.587a3.084,3.084,0,0,1-2.982-2.1H33.289a1.473,1.473,0,0,0,1.529,1.4h9.175a1.473,1.473,0,0,0,1.529-1.4H72.2Z" transform="translate(-5 -24)"/></svg>