<svg xmlns="http://www.w3.org/2000/svg" width="49.67" height="45.368" viewBox="0 0 49.67 45.368"><defs><style>.a{fill:#fff;}</style></defs><path class="a" d="M74.086,46.612l-3.574-4.776.481-5.769a.692.692,0,0,0-.432-.684l-5.711-2.5-2.741-5.216a.774.774,0,0,0-.748-.395l-6.316.439-5.228-3.265a.824.824,0,0,0-.864,0L43.725,27.71l-6.316-.439a.772.772,0,0,0-.748.395L33.92,32.881l-5.711,2.5a.692.692,0,0,0-.432.684l.481,5.769-3.574,4.776a.649.649,0,0,0,0,.789l3.574,4.776-.481,5.769a.692.692,0,0,0,.432.684l5.711,2.5,2.741,5.216a.771.771,0,0,0,.748.395l6.316-.439,5.228,3.265a.825.825,0,0,0,.864,0L55.045,66.3l6.316.439a.758.758,0,0,0,.748-.395l2.741-5.216,5.711-2.5a.692.692,0,0,0,.432-.684l-.481-5.769L74.086,47.4A.648.648,0,0,0,74.086,46.612ZM69.1,51.591a.655.655,0,0,0-.132.448l.462,5.537-5.482,2.4a.728.728,0,0,0-.359.328l-2.631,5.007-6.063-.422a.816.816,0,0,0-.49.12l-5.018,3.134-5.019-3.134a.818.818,0,0,0-.432-.122l-.058,0-6.062.422-2.631-5.007a.733.733,0,0,0-.359-.328l-5.482-2.4.462-5.537a.655.655,0,0,0-.132-.448l-3.431-4.584,3.431-4.584a.658.658,0,0,0,.132-.448l-.462-5.537,5.482-2.4a.733.733,0,0,0,.359-.328L37.815,28.7l6.062.422a.835.835,0,0,0,.49-.12l5.019-3.134L54.4,29a.835.835,0,0,0,.49.12l6.063-.422,2.631,5.007a.728.728,0,0,0,.359.328l5.482,2.4-.462,5.537a.653.653,0,0,0,.132.448l3.431,4.584Z" transform="translate(-24.55 -24.322)"/><path class="a" d="M69.952,55.475h-1.2c.468-1.214,1-3.151.394-4.633a2.807,2.807,0,0,0-1.795-1.636c-1.426-.463-2.663,1.231-4.081,3.915a11.156,11.156,0,0,1-2.452,3.093,4.66,4.66,0,0,0-.465.457,2.792,2.792,0,0,0-4.9,1.832v8.656a2.792,2.792,0,0,0,5,1.718,3.626,3.626,0,0,0,2.559,1.056h7.3c2.71,0,3.279-1.587,3.279-2.919v-7.9A3.642,3.642,0,0,0,69.952,55.475Zm-11.7,12.949a1.267,1.267,0,0,1-1.265-1.265V58.5a1.264,1.264,0,0,1,2.5-.281,2.717,2.717,0,0,0-.109.929V66.3a3.632,3.632,0,0,0,.133.96A1.263,1.263,0,0,1,58.249,68.424Zm13.81-1.41c0,.9-.279,1.389-1.748,1.389h-7.3a2.1,2.1,0,0,1-1.964-1.362V58.5c0-.036,0-.071-.006-.107a2.673,2.673,0,0,1,.773-1.016h0a12.789,12.789,0,0,0,2.815-3.544c1.59-3.015,2.207-3.164,2.254-3.173a1.273,1.273,0,0,1,.85.76c.482,1.177-.234,3.315-.832,4.465l-.583,1.118h3.635a2.111,2.111,0,0,1,2.108,2.108Z" transform="translate(-39.687 -38.361)"/></svg>