<svg xmlns="http://www.w3.org/2000/svg" width="52.895" height="45.368" viewBox="0 0 52.895 45.368"><defs><style>.a{fill:#fff;}</style></defs><g transform="translate(8.503 0)"><path class="a" d="M26.892,39.693h-.149A.877.877,0,0,1,26,38.647c1.344-7.991,8.216-16.8,18.672-18.223a22.085,22.085,0,0,1,21.062,8.664.9.9,0,0,1-1.419,1.12,20.088,20.088,0,0,0-19.418-7.991c-10.755,1.419-16.132,10.83-17.1,16.73A.887.887,0,0,1,26.892,39.693Z" transform="translate(-25.985 -20.199)"/></g><g transform="translate(11.716 27.036)"><path class="a" d="M49.118,73.587a21.859,21.859,0,0,1-18.672-9.933.912.912,0,1,1,1.494-1.046,19.917,19.917,0,0,0,18.9,9.037c10.9-.747,16.8-9.784,18.074-15.684a.879.879,0,0,1,1.718.373c-1.792,7.917-9.112,16.356-19.643,17.178A14.408,14.408,0,0,1,49.118,73.587Z" transform="translate(-30.287 -55.255)"/></g><g transform="translate(48.238 11.049)"><path class="a" d="M82.856,48.787h0a.922.922,0,0,1-.9-.971,19.346,19.346,0,0,0-2.614-11.8A.912.912,0,0,1,80.84,34.97a20.618,20.618,0,0,1,2.913,12.921A.961.961,0,0,1,82.856,48.787Z" transform="translate(-79.187 -34.587)"/></g><path class="a" d="M59.007,46.136l-6.2-1.195-5.975-11.2a.885.885,0,0,0-1.568.822l6.2,11.651.224.224a2.488,2.488,0,0,0,.448.224l6.572,1.27h.149a.887.887,0,0,0,.9-.747A.914.914,0,0,0,59.007,46.136Z" transform="translate(-22.336 -23.227)"/><g transform="translate(0 26.054)"><path class="a" d="M27.745,56.192H15.5a.9.9,0,1,1,0-1.792H27.745a.9.9,0,1,1,0,1.792Z" transform="translate(-14.6 -54.4)"/></g><g transform="translate(7.767 22.245)"><g transform="translate(0 0)"><path class="a" d="M30.377,51.192H25.9a.9.9,0,0,1,0-1.792h4.481a.9.9,0,0,1,0,1.792Z" transform="translate(-25 -49.4)"/></g></g><g transform="translate(3.361 22.245)"><g transform="translate(0 0)"><path class="a" d="M21.789,51.192H20A.9.9,0,0,1,20,49.4h1.792a.9.9,0,1,1,0,1.792Z" transform="translate(-19.1 -49.4)"/></g></g><g transform="translate(12.099 30.016)"><path class="a" d="M41.555,61.392H31.7a.9.9,0,1,1,0-1.792H41.63a.863.863,0,0,1,.9.9A.975.975,0,0,1,41.555,61.392Z" transform="translate(-30.8 -59.6)"/></g><g transform="translate(7.767 30.016)"><path class="a" d="M27.689,61.392H25.9a.9.9,0,1,1,0-1.792h1.792a.863.863,0,0,1,.9.9A.908.908,0,0,1,27.689,61.392Z" transform="translate(-25 -59.6)"/></g><g transform="translate(29.725 3.885)"><ellipse class="a" cx="0.971" cy="0.971" rx="0.971" ry="0.971"/></g><g transform="translate(47.127 21.713)"><g transform="translate(0 0)"><ellipse class="a" cx="0.971" cy="0.971" rx="0.971" ry="0.971"/></g></g><g transform="translate(29.725 39.542)"><ellipse class="a" cx="0.971" cy="0.971" rx="0.971" ry="0.971"/></g><g transform="translate(44.812 12.8)"><ellipse class="a" cx="0.971" cy="0.971" rx="0.971" ry="0.971"/></g><g transform="translate(38.463 37.227)"><ellipse class="a" cx="0.971" cy="0.971" rx="0.971" ry="0.971"/></g><g transform="translate(20.987 6.2)"><ellipse class="a" cx="0.971" cy="0.971" rx="0.971" ry="0.971"/></g><g transform="translate(38.538 6.274)"><ellipse class="a" cx="0.971" cy="0.971" rx="0.971" ry="0.971"/></g><g transform="translate(44.737 30.703)"><ellipse class="a" cx="0.971" cy="0.971" rx="0.971" ry="0.971"/></g><g transform="translate(20.912 37.152)"><ellipse class="a" cx="0.971" cy="0.971" rx="0.971" ry="0.971"/></g><g transform="translate(14.639 12.724)"><ellipse class="a" cx="0.971" cy="0.971" rx="0.971" ry="0.971"/></g></svg>