<?xml version="1.0" encoding="utf-8"?>
<!-- Generator: Adobe Illustrator 23.1.0, SVG Export Plug-In . SVG Version: 6.00 Build 0)  -->
<svg version="1.1" id="Layer_1" xmlns="http://www.w3.org/2000/svg" xmlns:xlink="http://www.w3.org/1999/xlink" x="0px" y="0px"
	 viewBox="0 0 24 24" style="enable-background:new 0 0 24 24;" xml:space="preserve">
<style type="text/css">
	.st0{fill:none;}
</style>
<g id="Group_1214" transform="translate(-570.71 -396.36)">
	<g id="Group_1190">
		<g id="Group_1188">
			<path id="Path_2342" d="M582.71,420.1c-6.48,0-11.74-5.26-11.74-11.74s5.26-11.74,11.74-11.74c6.48,0,11.74,5.26,11.74,11.74
				c0,0,0,0,0,0C594.44,414.84,589.19,420.09,582.71,420.1z M582.71,398.42c-5.48,0-9.93,4.45-9.93,9.93s4.45,9.93,9.93,9.93
				c5.48,0,9.93-4.45,9.93-9.93l0,0C592.63,402.87,588.19,398.43,582.71,398.42z"/>
		</g>
		<g id="Group_1189">
			<path id="Path_2343" d="M588.58,410.61h-7.22v-9.03h1.81v7.23h5.41V410.61z"/>
		</g>
	</g>
	<rect id="Rectangle_383" x="570.71" y="396.36" class="st0" width="24" height="24"/>
</g>
</svg>
