<svg xmlns="http://www.w3.org/2000/svg" width="24.5" height="24.5" viewBox="0 0 24.5 24.5"><defs><style>.a{fill:#fff;stroke:#fff;stroke-width:0.5px;}</style></defs><g transform="translate(0.25 0.25)"><path class="a" d="M25.8,17.6A2.8,2.8,0,1,0,23,14.8,2.8,2.8,0,0,0,25.8,17.6Zm0-4.8a2,2,0,1,1-2,2A2,2,0,0,1,25.8,12.8Z" transform="translate(-13.8 -7.2)"/><path class="a" d="M18.317,21.9l6.136-8.863a8.74,8.74,0,0,0-.712-10.793,7.67,7.67,0,0,0-10.848,0,8.738,8.738,0,0,0-.722,10.781ZM13.458,2.812a6.871,6.871,0,0,1,9.717,0,7.9,7.9,0,0,1,.629,9.76L18.317,20.5l-5.5-7.937A7.894,7.894,0,0,1,13.458,2.812Z" transform="translate(-6.388 0)"/><path class="a" d="M16.847,43a.4.4,0,1,0-.094.794c4.206.5,6.447,1.83,6.447,2.6,0,1.086-4.261,2.6-11.2,2.6S.8,47.485.8,46.4c0-.773,2.24-2.108,6.447-2.6A.4.4,0,1,0,7.153,43C2.942,43.5,0,44.9,0,46.4c0,1.69,4.122,3.4,12,3.4s12-1.71,12-3.4C24,44.9,21.058,43.5,16.847,43Z" transform="translate(0 -25.8)"/></g></svg>