<svg xmlns="http://www.w3.org/2000/svg" width="84.502" height="88" viewBox="0 0 84.502 88"><defs><style>.a{fill:#fff;}</style></defs><g transform="translate(0)"><g transform="translate(8.169)"><path class="a" d="M129.681,0l-17.44,17.441a4.31,4.31,0,0,1-6.081,0L91.831,3.112a7.119,7.119,0,0,0-5.065-2.1h-23.4A7.845,7.845,0,0,0,56,5.932a7.822,7.822,0,0,0,.906,7.725,5.689,5.689,0,0,0,.822,7.038l2.952,2.952a4.94,4.94,0,0,0,.152,4.078l-.064.064L72.93,39.948l.095-.1a2.4,2.4,0,0,0,.411.6,3.185,3.185,0,0,0,2.316.8,7.117,7.117,0,0,0,1.939-.3,12.415,12.415,0,0,0,5.2-3.207c3.582-3.582,4.3-7.861,2.7-9.457a2.408,2.408,0,0,0-.606-.407l.1-.1L73.267,15.968l-.335-.335-.063.063a4.945,4.945,0,0,0-4.078-.152l-2.952-2.95a5.875,5.875,0,0,0-6.8-.924,5.1,5.1,0,0,1,4.332-7.791h23.4a4.322,4.322,0,0,1,3.039,1.26l14.329,14.329a7.175,7.175,0,0,0,10.133,0l17.44-17.441ZM75.512,38.377A6.747,6.747,0,0,1,77.219,34.1l2.566,2.566A6.735,6.735,0,0,1,75.512,38.377Zm6.3-3.735-2.57-2.564a6.735,6.735,0,0,1,4.273-1.707A6.75,6.75,0,0,1,81.814,34.642ZM71.324,18.077h0l9.788,9.8a13.2,13.2,0,0,0-8.107,8.1l-9.79-9.791c-.171-.489.044-2.915,2.616-5.489S70.825,17.9,71.324,18.077Zm-11.562-3.46a2.933,2.933,0,0,1,4.048,0h0l2.247,2.247a13.308,13.308,0,0,0-4.052,4.052l-2.247-2.247A2.866,2.866,0,0,1,59.762,14.617Z" transform="translate(-55.374)"/></g><g transform="translate(0 41.974)"><path class="a" d="M84.176,266.255a5.654,5.654,0,0,0-1.068-6.58l-1.1-1.1c.023-.074.062-.143.082-.222a4.729,4.729,0,0,0-.234-3.85l.066-.067-.337-.337L69.768,242.281l-.1.1a2.438,2.438,0,0,0-.411-.6c-1.44-1.433-5.055-.976-8.38,1.752L51.7,234.344l-2.026,2.026,9.171,9.171a11.8,11.8,0,0,0-2.253,4.131,4.328,4.328,0,0,0,.506,4.256,2.447,2.447,0,0,0,.6.416l-.09.09L69.768,266.6l.044-.043a3.6,3.6,0,0,0,1.972.51,7.248,7.248,0,0,0,2.136-.37L75,267.785a5.719,5.719,0,0,0,7.285.675,5.108,5.108,0,0,1-4.181,8.031h-23.4a4.271,4.271,0,0,1-3.041-1.26L37.339,260.9a7.174,7.174,0,0,0-10.132,0L9.764,278.344l2.026,2.026,17.441-17.441a4.3,4.3,0,0,1,6.079,0h0L49.64,277.258a7.121,7.121,0,0,0,5.068,2.1h23.4a7.951,7.951,0,0,0,6.068-13.1Zm-23.29-18.669.946.946,2.026-2.026-.944-.946a6.736,6.736,0,0,1,4.271-1.705,7.554,7.554,0,0,1-2.651,5.353,7.628,7.628,0,0,1-5.353,2.652A6.75,6.75,0,0,1,60.886,247.585ZM71.371,264.15l-9.785-9.781a13.277,13.277,0,0,0,8.1-8.116l9.791,9.791c.169.491-.046,2.916-2.618,5.488S71.863,264.32,71.371,264.15Zm9.711,1.6a2.933,2.933,0,0,1-4.052,0l-.38-.38a13.7,13.7,0,0,0,4.045-4.059l.387.387A2.866,2.866,0,0,1,81.082,265.753Z" transform="translate(-9.764 -234.344)"/></g></g></svg>