<?xml version="1.0" encoding="utf-8"?>
<!-- Generator: Adobe Illustrator 23.1.0, SVG Export Plug-In . SVG Version: 6.00 Build 0)  -->
<svg version="1.1" id="Layer_1" xmlns="http://www.w3.org/2000/svg" xmlns:xlink="http://www.w3.org/1999/xlink" x="0px" y="0px"
	 viewBox="0 0 24 24" style="enable-background:new 0 0 24 24;" xml:space="preserve">
<style type="text/css">
	.st0{fill:none;}
</style>
<g>
	<g>
		<g>
			<g>
				<path d="M12,23.74c-4.91,0-9.34-3.1-11.04-7.72l1.84-0.68c1.42,3.85,5.11,6.43,9.2,6.43c5.4,0,9.8-4.38,9.8-9.77
					c0-5.4-4.4-9.8-9.8-9.8c-4.99,0-7.2,2.85-9.33,5.6L2.6,7.9C2.52,7.99,2.44,8.09,2.36,8.19C2.27,8.3,2.17,8.42,2.08,8.53
					L0.59,7.26c0.08-0.09,0.16-0.19,0.24-0.29c0.09-0.12,0.19-0.23,0.28-0.34C3.31,3.78,6.05,0.26,12,0.26
					c6.48,0,11.76,5.27,11.76,11.76C23.76,18.48,18.48,23.74,12,23.74z"/>
			</g>
		</g>
		<g>
			<g>
				<g>
					<polygon points="7.16,8.9 0.24,8.9 0.24,1.98 2.2,1.98 2.2,6.94 7.16,6.94 					"/>
				</g>
			</g>
		</g>
	</g>
	<rect x="0" y="0" class="st0" width="24" height="24"/>
</g>
</svg>
