<svg xmlns="http://www.w3.org/2000/svg" width="58.669" height="88" viewBox="0 0 58.669 88"><defs><style>.a{fill:#fff;}</style></defs><path class="a" d="M58.082,10.376a2.923,2.923,0,0,0,1.076-2.27V2.933A2.937,2.937,0,0,0,56.225,0H40.09a2.937,2.937,0,0,0-2.933,2.933V5.867H22.49V2.933A2.937,2.937,0,0,0,19.556,0H3.422A2.936,2.936,0,0,0,.489,2.933V8.106a2.915,2.915,0,0,0,1.076,2.269L16.622,22.7v30.2l-.988.9a1.467,1.467,0,0,0,.988,2.551v5.348l-.988.9a1.467,1.467,0,0,0,.988,2.551V70.5l-.988.9a1.467,1.467,0,0,0,.988,2.551V75.6a2.914,2.914,0,0,0,.974,2.183l.338.312-.023.021a1.467,1.467,0,0,0,1.977,2.169L20.1,80.1l2.633,2.429a1.467,1.467,0,0,0,1.98,2.164l.185-.168,2.994,2.761A2.914,2.914,0,0,0,29.813,88a2.992,2.992,0,0,0,1.97-.745l10.238-9.442a2.934,2.934,0,0,0,1-2.208V67.989l.988-.9a1.468,1.468,0,0,0,.1-2.073,1.444,1.444,0,0,0-1.084-.467v-5.36l.988-.9a1.468,1.468,0,0,0,.1-2.073,1.447,1.447,0,0,0-1.084-.467V50.388l.988-.9a1.468,1.468,0,0,0,.1-2.073,1.447,1.447,0,0,0-1.084-.467V41.588l.988-.9a1.468,1.468,0,0,0,.1-2.073,1.446,1.446,0,0,0-1.084-.466v-5.36l.988-.9a1.468,1.468,0,0,0,.1-2.073,1.447,1.447,0,0,0-1.084-.467V22.7ZM3.422,2.933H19.556V5.867A2.937,2.937,0,0,0,22.49,8.8H37.157A2.937,2.937,0,0,0,40.09,5.867V2.933H56.225V8.106L41.034,20.534H18.613L3.422,8.106ZM19.556,23.468H40.09l0,8.028L19.556,50.218ZM40.062,75.63,29.851,85.1l-2.778-2.562L40.065,70.688Zm0-8.916L24.908,80.54l-2.633-2.428L40.07,61.883Zm0-8.805L20.11,76.115l-.554-.51V71.791L40.074,53.079Zm0-8.8L19.556,67.82V62.991L40.079,44.274Zm0-8.805L19.556,59.019V54.19L40.083,35.469Zm0,0" transform="translate(-0.489)"/></svg>