<svg xmlns="http://www.w3.org/2000/svg" width="48" height="48" viewBox="0 0 48 48"><defs><style>.a{fill:none;}.b{fill:#fff;}</style></defs><g transform="translate(-1114 164)"><path class="a" d="M0,0H48V48H0Z" transform="translate(1114 -164)"/><path class="b" d="M26.737,9.053H22.947V6.526A2.534,2.534,0,0,0,20.421,4H12.842a2.534,2.534,0,0,0-2.526,2.526V9.053H6.526A2.534,2.534,0,0,0,4,11.579V25.474A2.534,2.534,0,0,0,6.526,28H26.737a2.534,2.534,0,0,0,2.526-2.526V11.579A2.534,2.534,0,0,0,26.737,9.053ZM12.842,6.526h7.579V9.053H12.842ZM6.526,11.579h3.789v2.526h2.526V11.579h7.579v2.526h2.526V11.579h3.789V25.474H6.526Z" transform="translate(1122 -155)"/></g></svg>