<svg xmlns="http://www.w3.org/2000/svg" width="25.7" height="24.509" viewBox="0 0 25.7 24.509"><defs><style>.a{fill:#fff;stroke:#fff;stroke-width:0.5px;}</style></defs><path class="a" d="M5.089,25.316a.45.45,0,0,1-.444-.527l1.394-8.123-5.9-5.752a.451.451,0,0,1,.25-.769L8.542,8.959,12.19,1.569a.45.45,0,0,1,.4-.252h0a.449.449,0,0,1,.4.252l3.647,7.391L24.8,10.145a.451.451,0,0,1,.25.769l-5.9,5.753,1.393,8.123a.451.451,0,0,1-.654.475L12.594,21.43,5.3,25.265A.454.454,0,0,1,5.089,25.316ZM1.42,10.905l5.417,5.281a.451.451,0,0,1,.129.4L5.688,24.041l6.7-3.52a.449.449,0,0,1,.42,0l6.7,3.52-1.279-7.456a.451.451,0,0,1,.129-.4l5.417-5.281L16.282,9.817a.451.451,0,0,1-.339-.247L12.594,2.787,9.246,9.571a.451.451,0,0,1-.339.247Z" transform="translate(0.256 -1.067)"/></svg>