<svg xmlns="http://www.w3.org/2000/svg" width="48" height="48" viewBox="0 0 48 48"><defs><style>.a{fill:#fff;}</style></defs><path class="a" d="M47.009,957.363a1.065,1.065,0,0,0-.583.266l-4.8,4.266a1.066,1.066,0,0,0-.35.8v4.883l-3.367,3.366a19.5,19.5,0,1,0,1.517,1.5l3.35-3.349h4.9a1.068,1.068,0,0,0,.8-.367l4.267-4.8a1.067,1.067,0,0,0-.8-1.766H48.209v-3.733a1.066,1.066,0,0,0-1.2-1.066Zm-.933,3.433v2.433a1.067,1.067,0,0,0,1.067,1.066h2.417l-2.367,2.666H43.409v-3.8l2.667-2.366ZM24.74,968.028a17.532,17.532,0,0,1,11.668,4.416l-3.784,3.783a12.457,12.457,0,1,0,1.5,1.516l3.784-3.782a17.6,17.6,0,1,1-13.168-5.932Zm0,7.465a10.1,10.1,0,0,1,6.367,2.25l-3.434,3.433a5.45,5.45,0,1,0,1.5,1.516l3.434-3.433a10.123,10.123,0,1,1-7.867-3.766Zm0,6.932a3.2,3.2,0,0,1,1.367.317l-2.117,2.116a1.067,1.067,0,1,0,1.5,1.516l2.133-2.133a3.2,3.2,0,1,1-2.884-1.816Z" transform="translate(-5.005 -957.354)"/></svg>