<svg xmlns="http://www.w3.org/2000/svg" width="24" height="24" viewBox="0 0 24 24"><defs><style>.a{fill:#fff;}</style></defs><path class="a" d="M12,0A12,12,0,1,0,24,12,12.014,12.014,0,0,0,12,0Zm5.353,9.254c.005.119.008.239.008.359A7.857,7.857,0,0,1,5.269,16.229a5.577,5.577,0,0,0,4.089-1.144,2.765,2.765,0,0,1-2.58-1.918,2.773,2.773,0,0,0,1.247-.046A2.762,2.762,0,0,1,5.81,10.413c0-.012,0-.024,0-.035a2.751,2.751,0,0,0,1.25.345,2.766,2.766,0,0,1-.855-3.688A7.843,7.843,0,0,0,11.9,9.922,2.764,2.764,0,0,1,16.605,7.4a5.513,5.513,0,0,0,1.755-.67A2.774,2.774,0,0,1,17.143,8.26a5.491,5.491,0,0,0,1.586-.435A5.556,5.556,0,0,1,17.353,9.254Z"/></svg>