<svg xmlns="http://www.w3.org/2000/svg" width="88" height="74.223" viewBox="0 0 88 74.223"><defs><style>.a{fill:#fff;}</style></defs><g transform="translate(0)"><g transform="translate(39.955 28.933)"><path class="a" d="M240.335,215.872a1.288,1.288,0,0,0-1.067-.566H235.66l2.048-5.121a1.289,1.289,0,0,0-2.394-.958l-2.756,6.889a1.289,1.289,0,0,0,1.2,1.768h3.607L235.315,223a1.289,1.289,0,1,0,2.394.958l2.755-6.889A1.289,1.289,0,0,0,240.335,215.872Z" transform="translate(-232.467 -208.416)"/></g><g transform="translate(6.889)"><path class="a" d="M68.231,6.23A20.716,20.716,0,0,0,53.737,0,20.385,20.385,0,0,0,39.026,5.982a21.728,21.728,0,0,0-6.485,15.385v4.2H28.98a3.415,3.415,0,0,0-3.411,3.411V45.247a3.415,3.415,0,0,0,3.411,3.411h3.561v4.723A11.723,11.723,0,0,1,28.71,62.03a11.6,11.6,0,0,1-9,2.994A11.985,11.985,0,0,1,9.15,53.008a1.087,1.087,0,0,0-2.175,0,14.5,14.5,0,0,0,3.559,9.525,13.569,13.569,0,0,0,8.977,4.657q.681.064,1.354.064a13.711,13.711,0,0,0,9.309-3.615,13.9,13.9,0,0,0,4.542-10.256V48.659h4.8v4.2a19.54,19.54,0,0,1-5.836,13.834,18.23,18.23,0,0,1-13.15,5.354A18.691,18.691,0,0,1,2.178,53.382V38.275a.075.075,0,0,1,.075-.075H6.9a.075.075,0,0,1,.075.075V48.3a1.087,1.087,0,0,0,2.175,0V38.275A2.252,2.252,0,0,0,6.9,36.026H5.664V30.141a1.087,1.087,0,1,0-2.175,0v5.885H2.252A2.252,2.252,0,0,0,0,38.275V53.382a20.865,20.865,0,0,0,20.489,20.84l.34,0A20.4,20.4,0,0,0,35.2,68.243a21.728,21.728,0,0,0,6.485-15.385v-4.2h3.561a3.415,3.415,0,0,0,3.411-3.411V28.979a3.415,3.415,0,0,0-3.411-3.411H41.688V20.844A11.723,11.723,0,0,1,45.519,12.2a11.6,11.6,0,0,1,9-2.994A11.985,11.985,0,0,1,65.079,21.219a1.087,1.087,0,1,0,2.174,0,14.5,14.5,0,0,0-3.559-9.525,13.569,13.569,0,0,0-8.977-4.657,13.744,13.744,0,0,0-10.663,3.551,13.9,13.9,0,0,0-4.542,10.256v4.723h-4.8v-4.2A19.54,19.54,0,0,1,40.551,7.533,18.235,18.235,0,0,1,53.7,2.179a18.691,18.691,0,0,1,18.35,18.665V35.951a.075.075,0,0,1-.075.075H67.328a.075.075,0,0,1-.075-.075V25.928a1.087,1.087,0,0,0-2.175,0V35.951A2.252,2.252,0,0,0,67.328,38.2h1.237v5.885a1.087,1.087,0,1,0,2.175,0V38.2h1.237a2.252,2.252,0,0,0,2.249-2.249V20.844A20.713,20.713,0,0,0,68.231,6.23ZM45.249,27.742a1.238,1.238,0,0,1,1.237,1.237V45.248a1.238,1.238,0,0,1-1.237,1.237H28.98a1.238,1.238,0,0,1-1.237-1.237V28.979a1.238,1.238,0,0,1,1.237-1.237Z" transform="translate(-0.003 -0.002)"/></g><g transform="translate(0 20.667)"><path class="a" d="M3.82,163.79l-1.378-2.755a1.289,1.289,0,0,0-2.306,1.153l1.378,2.756A1.289,1.289,0,0,0,3.82,163.79Z" transform="translate(0 -160.322)"/></g><g transform="translate(6.889 20.667)"><path class="a" d="M43.323,160.458a1.289,1.289,0,0,0-1.729.576l-1.378,2.756a1.289,1.289,0,1,0,2.306,1.153l1.378-2.755A1.289,1.289,0,0,0,43.323,160.458Z" transform="translate(-40.08 -160.322)"/></g><g transform="translate(84.043 48.222)"><path class="a" d="M492.8,324.111l-1.378-2.756a1.289,1.289,0,0,0-2.306,1.153l1.378,2.755a1.289,1.289,0,0,0,2.306-1.153Z" transform="translate(-488.98 -320.643)"/></g><g transform="translate(77.155 48.222)"><path class="a" d="M452.144,320.78a1.289,1.289,0,0,0-1.729.576l-1.378,2.755a1.289,1.289,0,1,0,2.306,1.153l1.378-2.756A1.289,1.289,0,0,0,452.144,320.78Z" transform="translate(-448.9 -320.643)"/></g></g></svg>