<svg xmlns="http://www.w3.org/2000/svg" width="16" height="21.512" viewBox="0 0 16 21.512"><g transform="translate(0)"><g transform="translate(-1221 -1813)"><path d="M21.71,0H6.606a.447.447,0,0,0-.448.448V21.064a.447.447,0,0,0,.758.322l7.242-6.974L21.4,21.386a.447.447,0,0,0,.758-.322V.448A.448.448,0,0,0,21.71,0Zm-.448,20.012-6.795-6.543a.446.446,0,0,0-.62,0L7.053,20.012V.9h14.21Z" transform="translate(1214.842 1813)"/><g transform="translate(1225.481 1816.585)"><rect width="0.896" height="7.171" transform="translate(3.137)"/><rect width="0.896" height="7.171" transform="translate(7.171 3.137) rotate(90)"/></g></g></g></svg>